<svg xmlns="http://www.w3.org/2000/svg" viewBox="964.938 1066.591 48.672 58.346">
  <defs>
    <style>
      .cls-1 {
        fill: #ff9090;
      }
    </style>
  </defs>
  <g id="_61120" data-name="61120" transform="translate(29 -73)">
    <g id="android" transform="translate(935.938 1139.591)">
      <path id="Path_2" data-name="Path 2" class="cls-1" d="M60.416,43.743a2.3,2.3,0,0,0,2.434,2.434h2.434v8.518a3.65,3.65,0,0,0,7.3,0V46.177h4.867v8.518a3.65,3.65,0,0,0,7.3,0V46.177h2.434a2.3,2.3,0,0,0,2.434-2.434V19.408h-29.2ZM54.332,19.408a3.743,3.743,0,0,0-3.65,3.65V40.093a3.65,3.65,0,1,0,7.3,0V23.058A3.743,3.743,0,0,0,54.332,19.408Zm41.371,0a3.743,3.743,0,0,0-3.65,3.65V40.093a3.65,3.65,0,0,0,7.3,0V23.058A3.743,3.743,0,0,0,95.7,19.408ZM83.536,5.293,86.7,2.129a1.176,1.176,0,0,0,0-1.7,1.176,1.176,0,0,0-1.7,0l-3.65,3.65a10.723,10.723,0,0,0-6.327-1.7,14.491,14.491,0,0,0-6.571,1.46L65.04.182a2.687,2.687,0,0,0-1.947,0,2.687,2.687,0,0,0,0,1.947l3.164,3.164a14.866,14.866,0,0,0-5.841,11.681h29.2A14.066,14.066,0,0,0,83.536,5.293ZM70.151,12.107H67.717V9.673h2.434Zm12.168,0H79.885V9.673h2.434Z" transform="translate(-50.682 0.001)"/>
    </g>
  </g>
</svg>
