<svg xmlns="http://www.w3.org/2000/svg" viewBox="746.555 1063.13 47.188 56.021">
  <defs>
    <style>
      .cls-1 {
        fill: #ff9090;
      }
    </style>
  </defs>
  <g id="Apple_logo_black" transform="translate(29 -73)">
    <path id="Apple_logo_black-2" data-name="Apple_logo_black" class="cls-1" d="M62.969,47.656a30.457,30.457,0,0,1-3.012,5.415,27.513,27.513,0,0,1-3.88,4.689,7.526,7.526,0,0,1-4.986,2.2,12.5,12.5,0,0,1-4.606-1.1,13.216,13.216,0,0,0-4.959-1.1,13.665,13.665,0,0,0-5.1,1.1,13.72,13.72,0,0,1-4.406,1.158,7.086,7.086,0,0,1-5.1-2.255,28.89,28.89,0,0,1-4.058-4.855,33.578,33.578,0,0,1-4.291-8.524,31.212,31.212,0,0,1-1.8-10.159,18.552,18.552,0,0,1,2.436-9.706,14.291,14.291,0,0,1,5.1-5.161,13.726,13.726,0,0,1,6.9-1.947,16.242,16.242,0,0,1,5.335,1.242A17.151,17.151,0,0,0,40.774,19.9a25.322,25.322,0,0,0,4.692-1.466A15.511,15.511,0,0,1,51.844,17.3q7.07.571,10.609,5.586-6.323,3.831-6.259,10.72a11.827,11.827,0,0,0,3.883,8.911,12.761,12.761,0,0,0,3.88,2.545q-.467,1.354-.989,2.6ZM52.159,5.12A11.951,11.951,0,0,1,49.1,12.959c-2.462,2.878-5.44,4.542-8.67,4.279a8.722,8.722,0,0,1-.065-1.062,12.279,12.279,0,0,1,3.25-7.922A12.514,12.514,0,0,1,47.57,5.282,11.806,11.806,0,0,1,52.1,4a10.177,10.177,0,0,1,.059,1.121Z" transform="translate(700.785 1132.131)"/>
  </g>
</svg>
