<svg xmlns="http://www.w3.org/2000/svg" viewBox="341 2110.074 287.612 303.538">
  <defs>
    <style>
      .cls-1 {
        fill: #dedede;
      }

      .cls-2 {
        fill: #ff9090;
      }

      .cls-3 {
        fill: #fff5ef;
      }
    </style>
  </defs>
  <g id="Symbol_4_1" data-name="Symbol 4 – 1" transform="translate(29 -73)">
    <g id="Group_7" data-name="Group 7" transform="translate(596 2737)">
      <rect id="Rectangle_259" data-name="Rectangle 259" class="cls-1" width="287.612" height="287.612" rx="43" transform="translate(-284 -538)"/>
      <rect id="Rectangle_270" data-name="Rectangle 270" class="cls-1" width="66.264" height="66.264" rx="33.132" transform="translate(-112.621 -427.554)"/>
    </g>
    <path id="Path_9" data-name="Path 9" class="cls-2" d="M-294.231,1741.33l86.392,54.8v47.961l-86.392-54.877Z" transform="translate(662 520.757)"/>
    <path id="Path_10" data-name="Path 10" class="cls-2" d="M-294.231,1741.33l86.392,54.8v47.961l-86.392-54.877Z" transform="translate(662 572.079)"/>
    <path id="Path_11" data-name="Path 11" class="cls-2" d="M-294.231,1741.33l86.392,54.8v47.961l-86.392-54.877Z" transform="translate(662 623.401)"/>
    <path id="Path_15" data-name="Path 15" class="cls-3" d="M-211.446,1741.33l-82.785,52.509V1839.8l82.785-52.587Z" transform="translate(750.986 627.692)"/>
    <path id="Path_12" data-name="Path 12" class="cls-2" d="M0,0,90.421,48l1.79,100.578L5.82,93.7Z" transform="matrix(-0.545, 0.839, -0.839, -0.545, 544.124, 2263.994)"/>
  </g>
</svg>
