<svg xmlns="http://www.w3.org/2000/svg" viewBox="341 1710 287.612 287.612">
  <defs>
    <style>
      .cls-1 {
        fill: #dedede;
      }

      .cls-2 {
        fill: #ff9090;
      }

      .cls-3 {
        fill: #fff5ef;
      }
    </style>
  </defs>
  <g id="Symbol_3_1" data-name="Symbol 3 – 1" transform="translate(29 -73)">
    <g id="Group_5" data-name="Group 5" transform="translate(596 2321)">
      <rect id="Rectangle_259" data-name="Rectangle 259" class="cls-1" width="287.612" height="287.612" rx="43" transform="translate(-284 -538)"/>
      <rect id="Rectangle_270" data-name="Rectangle 270" class="cls-1" width="66.264" height="66.264" rx="33.132" transform="translate(-112.621 -427.554)"/>
    </g>
    <path id="Subtraction_1" data-name="Subtraction 1" class="cls-2" d="M64.5,244a102.652,102.652,0,0,1-18.843-1.737,99.484,99.484,0,0,1-17.551-4.982A96.517,96.517,0,0,1,12.224,229.4,92.979,92.979,0,0,1-1.615,218.957,88.263,88.263,0,0,1-13.032,206.3a83.432,83.432,0,0,1-8.62-14.523A79.835,79.835,0,0,1-27.1,175.731a79.147,79.147,0,0,1-.558-31.741,18.683,18.683,0,0,0,9.812,6.031c9.124,1.951,10.962,3.309,13.506,5.188a36.09,36.09,0,0,0,6.882,4.123,12.483,12.483,0,0,0,5.293,1.337,7.413,7.413,0,0,0,6.144-3.076,8.754,8.754,0,0,0,1.324-7.573c-.4-1.236.39-3.046,2.333-5.379a54.777,54.777,0,0,1,6.823-6.553c5.025-4.193,10.405-7.834,10.456-7.868a102.9,102.9,0,0,0,12.052-7.158,50.3,50.3,0,0,0,8.4-7.119c2.572-2.835,3.94-5.478,4.068-7.854.151-2.829-1.456-5.323-4.778-7.413-5.755-3.622-8.681-7.456-8.7-11.4a8.706,8.706,0,0,1,.916-3.843A12.935,12.935,0,0,1,48.92,82.46a16.3,16.3,0,0,1,2.973-2.608l-14.73-3.139a102.742,102.742,0,0,1,46.182-1.976,99.567,99.567,0,0,1,17.551,4.982A96.655,96.655,0,0,1,116.777,87.6a92.945,92.945,0,0,1,13.838,10.44A88.335,88.335,0,0,1,142.032,110.7a83.583,83.583,0,0,1,8.621,14.523,79.951,79.951,0,0,1,5.448,16.049,79.092,79.092,0,0,1,0,34.463,79.927,79.927,0,0,1-5.448,16.049,83.486,83.486,0,0,1-8.621,14.523,88.293,88.293,0,0,1-11.417,12.654A92.887,92.887,0,0,1,116.777,229.4a96.511,96.511,0,0,1-15.882,7.883,99.527,99.527,0,0,1-17.551,4.982A102.652,102.652,0,0,1,64.5,244ZM58.884,130.508h0c-1.9,0-3.85,1.543-5.487,4.343a20.376,20.376,0,0,0-2.32,6.185c-.418,2.173-.33,3.936.248,4.963,1.22,2.168.326,6.163-2.332,10.426a38.366,38.366,0,0,1-5.908,7.161,58.138,58.138,0,0,1-9.434,7.321c-4.334,2.733-6.583,5.841-6.686,9.238a9.511,9.511,0,0,0,.967,4.314,15.92,15.92,0,0,0,2.307,3.516,21.643,21.643,0,0,0,3.412,3.234c.168.388,1.665,3.866,3.032,7.713a59.226,59.226,0,0,1,1.838,5.987c.477,2.02.583,3.42.316,4.16a.705.705,0,0,0,.061.559c.41.837,2.165,2.008,5.216,3.479,2.441,1.177,5.712,2.548,9.723,4.075,6.8,2.588,13.524,4.78,13.591,4.8l20.52,4v-.012a75.771,75.771,0,0,1,2.092-13.381,32.851,32.851,0,0,1,3.868-9.516c1.927-2.967,4.236-4.64,6.863-4.974,2.607-.331,4.291-1.245,5.005-2.715.662-1.364.526-3.189-.417-5.581a41.153,41.153,0,0,0-3.052-5.786,22.76,22.76,0,0,1-1.536-2.8c-.444-1.16-4.862-2.938-10.457-5.19C80,171.882,65.873,166.2,67.427,160.408a31.421,31.421,0,0,0,.931-7.666,44.7,44.7,0,0,0-.753-8.535A32.246,32.246,0,0,0,65.22,136.5a12.978,12.978,0,0,0-3.966-5.176,4.086,4.086,0,0,0-2.368-.817ZM73.254,89.5A5.779,5.779,0,0,0,70.3,93.316a11.883,11.883,0,0,0,.143,5.386,29.567,29.567,0,0,0,1.9,5.531,47.762,47.762,0,0,0,3.259,6.06l12.865,40.586c.293.146,29.79,14.811,37.562,16.77a7.034,7.034,0,0,0,1.709.213c3.491,0,6.444-2.58,8.306-4.745,2.741-3.186,4.325-6.854,4.17-7.881-.146-.964-.063-4.454.025-8.148l0-.086c.1-4.313.212-8.773-.027-9.753-.44-1.8,9.567-6.639,9.668-6.687l-.162-.094c-4.9-2.829-29.417-16.982-31.044-17.812-1.064-.541-16.75-8.538-44.171-22.519Z" transform="translate(373 1768)"/>
    <circle id="Ellipse_1" data-name="Ellipse 1" class="cls-3" cx="56.5" cy="56.5" r="56.5" transform="matrix(0.921, 0.391, -0.391, 0.921, 494.793, 1845.098)"/>
    <path id="Path_3" data-name="Path 3" class="cls-1" d="M11.5,0A11.5,11.5,0,1,1,0,11.5,11.5,11.5,0,0,1,11.5,0Z" transform="translate(531 1897)"/>
    <path id="Path_4" data-name="Path 4" class="cls-3" d="M139.364,1773.176v129.87s14.947,27.3,47.229,0c.314-25.385,0-33.758,0-33.758l-11.877-5.758,11.663-11.271.214-14.823-11.743-4.422,11.331-10.92.412-32.293,14.85-16.625Z" transform="matrix(0.559, 0.829, -0.829, 0.559, 1866.535, 813.227)"/>
  </g>
</svg>
